<?xml version="1.0" standalone="no"?>
<!DOCTYPE svg PUBLIC "-//W3C//DTD SVG 20010904//EN"
 "http://www.w3.org/TR/2001/REC-SVG-20010904/DTD/svg10.dtd">
<svg version="1.0" xmlns="http://www.w3.org/2000/svg"
 width="209.000000pt" height="150.000000pt" viewBox="0 0 209.000000 150.000000"
 preserveAspectRatio="xMidYMid meet">

<g transform="translate(0.000000,150.000000) scale(0.100000,-0.100000)"
fill="#000000" stroke="none">
<path d="M632 1130 c-27 -16 -32 -25 -27 -43 5 -17 4 -19 -4 -7 -9 13 -32 4
-150 -54 -76 -38 -149 -77 -161 -86 -21 -16 -21 -17 -4 -61 9 -24 20 -48 24
-52 4 -4 28 2 55 13 43 18 50 19 63 6 14 -13 4 -27 -84 -121 -123 -131 -158
-174 -151 -181 5 -6 65 56 198 203 35 39 67 71 72 72 4 1 8 -68 9 -151 l2
-153 3 148 c2 81 7 147 12 147 5 0 64 -61 131 -135 67 -74 126 -133 131 -130
5 4 -49 70 -120 147 l-128 141 16 38 c13 32 25 42 69 60 56 23 55 21 37 86 -3
10 3 -1 14 -24 22 -47 36 -51 82 -27 22 11 29 20 24 32 -4 9 -18 47 -32 85
-14 37 -30 67 -37 67 -6 0 -26 -9 -44 -20z m58 -8 c0 -9 -44 -32 -60 -32 -18
0 -10 17 13 28 27 13 47 15 47 4z m-102 -74 c-6 -16 -274 -141 -290 -135 -14
4 257 146 280 146 8 1 12 -4 10 -11z"/>
<path d="M790 790 l0 -210 85 0 c78 0 85 -2 85 -20 0 -18 -7 -20 -85 -20 -50
0 -85 -4 -85 -10 0 -6 45 -10 118 -9 64 0 111 3 105 6 -18 7 -16 43 2 43 8 0
15 -4 15 -10 0 -5 14 -10 30 -10 25 0 30 4 30 25 0 22 -4 25 -34 25 -50 0 -57
16 -54 117 l3 88 58 3 57 3 0 -134 c0 -90 -4 -137 -12 -145 -9 -9 -7 -12 10
-12 l22 0 0 240 0 240 -175 0 -175 0 0 -210z m138 134 c21 -14 22 -22 22 -150
0 -161 -7 -174 -90 -174 l-50 0 0 170 0 170 48 0 c27 0 57 -7 70 -16z"/>
<path d="M840 770 l0 -140 28 0 c47 0 52 14 52 136 0 62 -3 119 -6 128 -4 10
-18 16 -40 16 l-34 0 0 -140z"/>
<path d="M1170 913 c0 -16 41 -240 55 -301 4 -17 12 -22 28 -20 20 3 25 17 54
163 18 88 32 163 32 168 1 4 -10 7 -23 7 -22 0 -24 -6 -41 -110 -11 -61 -22
-105 -26 -98 -3 7 -12 49 -18 93 -16 107 -19 115 -42 115 -11 0 -19 -7 -19
-17z"/>
<path d="M223 903 c-7 -2 -13 -12 -13 -21 0 -12 3 -13 12 -4 7 7 19 12 28 12
11 -1 10 -4 -5 -12 -11 -6 -22 -12 -24 -14 -6 -5 20 -64 28 -64 4 0 16 6 26
14 17 12 18 16 4 52 -14 38 -30 48 -56 37z"/>
<path d="M170 889 c0 -5 5 -7 12 -3 7 4 8 3 4 -5 -9 -14 24 -113 37 -108 13 4
12 13 -9 72 -10 30 -24 55 -31 55 -7 0 -13 -5 -13 -11z"/>
<path d="M1377 803 c-4 -3 -7 -50 -7 -104 0 -92 1 -97 23 -103 67 -18 121 5
115 48 -4 30 -44 34 -51 6 -8 -31 -41 -22 -45 13 -3 25 -1 27 35 27 48 0 63
14 63 60 0 20 -5 41 -12 48 -13 13 -110 17 -121 5z m83 -58 c0 -20 -5 -25 -25
-25 -20 0 -25 5 -25 25 0 20 5 25 25 25 20 0 25 -5 25 -25z"/>
<path d="M1542 701 c3 -98 4 -106 23 -106 18 0 20 8 23 88 3 79 5 87 22 87 15
0 20 -7 20 -25 0 -20 5 -25 25 -25 22 0 25 4 25 33 0 48 -9 54 -78 54 l-63 1
3 -107z"/>
<path d="M1712 798 c-13 -13 -16 -57 -4 -74 4 -5 24 -20 45 -33 22 -13 37 -30
37 -42 0 -26 -24 -24 -42 3 -17 26 -48 19 -48 -11 0 -30 28 -51 66 -51 56 0
74 15 74 60 0 36 -4 41 -45 66 -25 14 -45 32 -45 40 0 19 36 18 44 -1 3 -8 15
-15 26 -15 18 0 21 5 18 33 -3 31 -4 32 -58 35 -34 2 -60 -2 -68 -10z"/>
<path d="M1887 804 c-4 -4 -7 -51 -7 -105 0 -107 1 -109 65 -109 53 0 65 9 65
46 0 27 -4 34 -19 34 -11 0 -21 -9 -24 -21 -8 -30 -41 -21 -45 13 -3 25 0 27
40 30 l43 3 0 55 0 55 -55 3 c-31 2 -59 0 -63 -4z m83 -59 c0 -20 -5 -25 -25
-25 -20 0 -25 5 -25 25 0 20 5 25 25 25 20 0 25 -5 25 -25z"/>
<path d="M1037 784 c-4 -4 -7 -40 -7 -81 l0 -73 30 0 30 0 0 75 c0 41 -4 75
-9 75 -5 0 -16 2 -23 5 -8 3 -17 2 -21 -1z"/>
<path d="M1160 550 c0 -20 7 -20 435 -20 428 0 435 0 435 20 0 20 -7 20 -435
20 -428 0 -435 0 -435 -20z"/>
</g>
</svg>
