<svg xmlns="http://www.w3.org/2000/svg" width="15.582" height="1003.164" viewBox="0 0 15.582 1003.164">
  <g id="Group_484" data-name="Group 484" transform="translate(-425.563 -212)" opacity="0.5">
    <path id="Path_11112" data-name="Path 11112" d="M18.188,1.985c-5.8-1.4-13.93-.4-14.5,2.324-.411,1.995,3.7,3.45,8.905,3.559.358.01.733,0,1.091,0,2.405.023,4.81,0,7.215,0h427.67c11.212,0,22.075.165,32.777,1.718a124.465,124.465,0,0,1,21.235,4.889c1.717.566-.822,1.5-2.53.932-12.07-4-27.305-6.169-43.533-6.222-1.833-.007-3.675,0-5.508,0H18.679c-1.931,0-3.88.026-5.811,0C3.122,9.062-3.628,5.2,2.112,2,6.135-.234,14.155-.563,20,.846c1.913.464.125,1.6-1.815,1.139" transform="translate(441.145 212) rotate(90)" fill="#1a1a1a"/>
    <path id="Path_11114" data-name="Path 11114" d="M.571,14.473c14-4.635,31.105-6.607,49.649-6.607H439.311c16.978,0,34.3.362,51.249,0,4.7-.1,8.744-1.32,8.986-3.144.384-2.93-8.467-4.2-14.592-2.739-1.931.461-3.728-.678-1.806-1.139,5.883-1.409,13.831-1.076,17.882,1.162,3.675,2.025,2.28,4.843-3.04,6.271a38.018,38.018,0,0,1-9.835.905H57.265c-9.4,0-18.588-.092-27.788.843A124.547,124.547,0,0,0,3.1,15.4c-1.708.566-4.247-.365-2.53-.932" transform="translate(441.145 712.079) rotate(90)" fill="#1a1a1a"/>
  </g>
</svg>
