<svg xmlns="http://www.w3.org/2000/svg" width="557" height="9.983" viewBox="0 0 557 9.983">
  <g id="Group_494" data-name="Group 494" transform="translate(-378 -754.613)" opacity="0.499">
    <path id="Path_11105" data-name="Path 11105" d="M606.3,180.714a4.992,4.992,0,1,1-4.992-4.992,4.993,4.993,0,0,1,4.992,4.992" transform="translate(55.19 578.89)" fill="#1a1a1a"/>
    <path id="Path_11107" data-name="Path 11107" d="M797.945,180.714a4.992,4.992,0,1,0,4.986-4.992,4.989,4.989,0,0,0-4.986,4.992" transform="translate(127.071 578.89)" fill="#1a1a1a"/>
    <path id="Path_11108" data-name="Path 11108" d="M873.793,180.741H597.668v-2.12H873.793v2.12" transform="translate(55.669 579.923)" fill="#1a1a1a"/>
    <path id="Path_11109" data-name="Path 11109" d="M678.18,180.741H402.055v-2.12H678.18v2.12" transform="translate(-14.073 579.923)" fill="#1a1a1a"/>
    <path id="Path_11111" data-name="Path 11111" d="M404.678,180.714a4.992,4.992,0,1,1-4.992-4.992,4.99,4.99,0,0,1,4.992,4.992" transform="translate(-16.695 578.89)" fill="#1a1a1a"/>
  </g>
</svg>
